<svg width="22" height="25" viewBox="0 0 22 25" fill="none" xmlns="http://www.w3.org/2000/svg">
<g clip-path="url(#clip0)">
<path d="M19.6429 1.5625H2.35714C1.73199 1.5625 1.13244 1.80943 0.690391 2.24897C0.248341 2.68851 0 3.28465 0 3.90625L0 21.0938C0 21.7154 0.248341 22.3115 0.690391 22.751C1.13244 23.1906 1.73199 23.4375 2.35714 23.4375H9.0971V16.0005H6.00335V12.5H9.0971V9.83203C9.0971 6.79736 10.9141 5.12109 13.697 5.12109C15.0297 5.12109 16.4234 5.35742 16.4234 5.35742V8.33594H14.8878C13.3748 8.33594 12.9029 9.26953 12.9029 10.2271V12.5H16.2805L15.7403 16.0005H12.9029V23.4375H19.6429C20.268 23.4375 20.8676 23.1906 21.3096 22.751C21.7517 22.3115 22 21.7154 22 21.0938V3.90625C22 3.28465 21.7517 2.68851 21.3096 2.24897C20.8676 1.80943 20.268 1.5625 19.6429 1.5625Z" fill="white"/>
</g>
<defs>
<clipPath id="clip0">
<rect width="22" height="25" fill="white"/>
</clipPath>
</defs>
</svg>
