<svg width="21" height="19" viewBox="0 0 21 19" fill="none" xmlns="http://www.w3.org/2000/svg">
<g clip-path="url(#clip0)">
<path d="M18 4.03544C19.6961 4.27806 21 5.73676 21 7.5C21 9.26324 19.6961 10.7219 18 10.9646V13.5016C18 14.33 17.3284 15.0016 16.5 15.0016C16.334 15.0016 16.1692 14.974 16.0123 14.9201L8.77592 12.432L6.91317 12.2128L7.99273 18.4144C8.04597 18.7202 7.81056 19.0001 7.50014 19.0001H5.14296C4.93495 19.0001 4.74866 18.8713 4.67519 18.6767L2.03236 11.6767C2.00425 11.6023 1.99507 11.5253 2.00243 11.4511C0.809175 10.8862 0 9.6722 0 8.28703V6.71692C0 4.94025 1.33112 3.44545 3.0959 3.24032L8.77594 2.58011L16.0105 0.082525C16.7936 -0.187816 17.6475 0.227837 17.9179 1.01091C17.9722 1.16839 18 1.33382 18 1.50041V4.03544ZM18 5.05001V9.94999C19.1411 9.71836 20 8.70948 20 7.5C20 6.29052 19.1411 5.28164 18 5.05001ZM6.00835 3.90853L3.21136 4.23364C1.9508 4.38016 1 5.44787 1 6.71692V8.28703C1 9.55471 1.94882 10.6217 3.20782 10.7699L6 11.0985V4C6 3.96876 6.00287 3.93819 6.00835 3.90853ZM6.9576 3.7982C6.98486 3.85992 7 3.92819 7 4V11.2161L8.94613 11.4452L9.05027 11.4689L16.3374 13.9744C16.3897 13.9924 16.4447 14.0016 16.5 14.0016C16.7761 14.0016 17 13.7777 17 13.5016V1.50041C17 1.44488 16.9907 1.38973 16.9726 1.33724C16.8825 1.07622 16.5979 0.937667 16.3368 1.02778L9.05086 3.54312L8.94542 3.56715L6.9576 3.7982ZM5.89472 12.093L3.13584 11.7683L5.48864 18.0001H6.90558L5.90016 12.2244C5.89242 12.18 5.89081 12.1359 5.89472 12.093Z" fill="#CC3829"/>
</g>
<defs>
<clipPath id="clip0">
<rect width="21" height="19" fill="white"/>
</clipPath>
</defs>
</svg>
