<svg width="21" height="21" viewBox="0 0 21 21" fill="none" xmlns="http://www.w3.org/2000/svg">
<g clip-path="url(#clip0)">
<path d="M15 17.5V7H8V11C8 12.1046 7.10457 13 6 13C4.89543 13 4 12.1046 4 11V7H2V17.5C2 18.8807 3.11929 20 4.5 20H12.5C13.8807 20 15 18.8807 15 17.5ZM16 7H18.5C19.8807 7 21 8.11929 21 9.5V13.5C21 14.8807 19.8807 16 18.5 16H16V17.5C16 19.433 14.433 21 12.5 21H4.5C2.567 21 1 19.433 1 17.5V6.73244C0.402199 6.38663 0 5.74028 0 5C0 3.89543 0.89543 3 2 3H2.3368C2.90738 1.79679 4.12792 1 5.5 1C6.26024 1 6.98217 1.24403 7.57454 1.68068C8.33635 0.641204 9.55648 0 10.8902 0C12.7565 0 14.3602 1.25213 14.8484 3H15C16.1046 3 17 3.89543 17 5C17 5.74028 16.5978 6.38663 16 6.73244V7ZM7.5 6H15C15.5523 6 16 5.55228 16 5C16 4.44772 15.5523 4 15 4H14.4487C14.2049 4 13.9967 3.82419 13.9558 3.58386C13.7035 2.10075 12.412 1 10.8902 1C9.71757 1 8.66154 1.65448 8.12968 2.67638C7.97069 2.98185 7.55773 3.03892 7.32186 2.78802C6.85194 2.28817 6.19962 2 5.5 2C4.43193 2 3.49226 2.67599 3.14213 3.66662C3.07151 3.86642 2.88261 4 2.67071 4H2C1.44772 4 1 4.44772 1 5C1 5.55228 1.44772 6 2 6H4.5C4.77614 6 5 6.22386 5 6.5V11C5 11.5523 5.44772 12 6 12C6.55228 12 7 11.5523 7 11V6.5C7 6.22386 7.22386 6 7.5 6ZM18.5 8H16V15H18.5C19.3284 15 20 14.3284 20 13.5V9.5C20 8.67157 19.3284 8 18.5 8Z" fill="#CC3829"/>
</g>
<defs>
<clipPath id="clip0">
<rect width="21" height="21" fill="white"/>
</clipPath>
</defs>
</svg>
