<svg width="122" height="30" viewBox="0 0 122 30" fill="none" xmlns="http://www.w3.org/2000/svg">
<path d="M0.44 28.244L3.752 27.704V1.496L0.44 0.991998V0.2H11.744C15.296 0.2 17.936 0.955999 19.664 2.468C21.392 3.98 22.256 6.164 22.256 9.02C22.256 11.876 21.392 14.06 19.664 15.572C17.936 17.084 15.296 17.84 11.744 17.84H7.712V27.704L11.024 28.244V29H0.44V28.244ZM11.24 16.976C15.68 16.976 17.9 14.564 17.9 9.74V8.3C17.9 3.5 15.68 1.1 11.24 1.1H7.712V16.976H11.24ZM24.5814 28.28L27.1014 27.92V11.432L24.5814 11.072V10.352H30.7014V13.124C32.2134 11.06 33.9174 10.028 35.8134 10.028C36.7254 10.028 37.5294 10.268 38.2254 10.748C38.9214 11.204 39.2694 11.864 39.2694 12.728C39.2694 13.352 39.0654 13.88 38.6574 14.312C38.2494 14.72 37.7094 14.924 37.0374 14.924C36.2694 14.924 35.6454 14.624 35.1654 14.024C35.4294 13.688 35.5614 13.328 35.5614 12.944C35.5614 12.536 35.4174 12.212 35.1294 11.972C34.8654 11.708 34.5054 11.576 34.0494 11.576C33.5454 11.576 33.0294 11.816 32.5014 12.296C31.9734 12.752 31.3734 13.472 30.7014 14.456V27.92L33.5814 28.28V29H24.5814V28.28ZM44.3592 6.176C43.6872 6.176 43.1112 5.948 42.6312 5.492C42.1512 5.012 41.9112 4.436 41.9112 3.764C41.9112 3.092 42.1392 2.528 42.5952 2.072C43.0752 1.616 43.6632 1.388 44.3592 1.388C45.0072 1.388 45.5592 1.616 46.0152 2.072C46.4712 2.528 46.6992 3.092 46.6992 3.764C46.6992 4.436 46.4712 5.012 46.0152 5.492C45.5592 5.948 45.0072 6.176 44.3592 6.176ZM40.5432 29V28.28L43.0632 27.92V11.468L40.5432 11.108V10.388H46.6632V27.92L49.1832 28.28V29H40.5432ZM50.9134 28.28L53.4334 27.92V11.432L50.9134 11.072V10.352H57.0334V13.664C57.8974 12.536 58.8694 11.648 59.9494 11C61.0534 10.352 62.2414 10.028 63.5134 10.028C64.9774 10.028 66.1654 10.352 67.0774 11C68.0134 11.624 68.6014 12.572 68.8414 13.844C69.7054 12.668 70.6894 11.744 71.7934 11.072C72.8974 10.376 74.1094 10.028 75.4294 10.028C77.1334 10.028 78.4534 10.46 79.3894 11.324C80.3494 12.164 80.8294 13.448 80.8294 15.176V27.92L83.3494 28.28V29H75.0694V28.28L77.2294 27.92V15.248C77.2294 13.976 77.0014 13.004 76.5454 12.332C76.0894 11.66 75.3454 11.324 74.3134 11.324C73.3294 11.324 72.3694 11.66 71.4334 12.332C70.5214 13.004 69.6934 13.868 68.9494 14.924V27.92L71.1094 28.28V29H63.1534V28.28L65.3134 27.92V15.248C65.3134 13.976 65.0854 13.004 64.6294 12.332C64.1734 11.66 63.4294 11.324 62.3974 11.324C61.4134 11.324 60.4534 11.66 59.5174 12.332C58.6054 13.004 57.7774 13.868 57.0334 14.924V27.92L59.1934 28.28V29H50.9134V28.28ZM94.8798 29.36C93.1518 29.36 91.5798 28.964 90.1638 28.172C88.7478 27.356 87.6198 26.216 86.7798 24.752C85.9638 23.264 85.5558 21.572 85.5558 19.676C85.5558 17.78 85.9638 16.1 86.7798 14.636C87.6198 13.172 88.7478 12.044 90.1638 11.252C91.5798 10.436 93.1518 10.028 94.8798 10.028C96.6078 10.028 98.1798 10.436 99.5958 11.252C101.012 12.044 102.128 13.172 102.944 14.636C103.784 16.1 104.204 17.78 104.204 19.676C104.204 21.572 103.784 23.264 102.944 24.752C102.128 26.216 101.012 27.356 99.5958 28.172C98.1798 28.964 96.6078 29.36 94.8798 29.36ZM94.8798 28.568C96.6558 28.568 97.9878 27.92 98.8758 26.624C99.7878 25.328 100.244 23.612 100.244 21.476V17.876C100.244 15.74 99.7878 14.036 98.8758 12.764C97.9878 11.468 96.6558 10.82 94.8798 10.82C93.1038 10.82 91.7598 11.468 90.8478 12.764C89.9598 14.036 89.5158 15.74 89.5158 17.876V21.476C89.5158 23.612 89.9598 25.328 90.8478 26.624C91.7598 27.92 93.1038 28.568 94.8798 28.568ZM114.374 29.36C112.406 29.36 110.762 28.94 109.442 28.1C108.122 27.26 107.462 26.168 107.462 24.824C107.462 24.128 107.642 23.588 108.002 23.204C108.386 22.796 108.89 22.592 109.514 22.592C109.994 22.592 110.402 22.712 110.738 22.952C111.074 23.192 111.314 23.528 111.458 23.96C110.93 24.536 110.666 25.148 110.666 25.796C110.666 26.54 111.002 27.188 111.674 27.74C112.346 28.292 113.246 28.568 114.374 28.568C115.886 28.568 117.122 28.232 118.082 27.56C119.042 26.864 119.522 25.94 119.522 24.788C119.522 24.116 119.318 23.612 118.91 23.276C118.502 22.94 117.71 22.556 116.534 22.124L111.098 20.144C108.962 19.376 107.894 17.948 107.894 15.86C107.894 14.156 108.482 12.764 109.658 11.684C110.834 10.58 112.454 10.028 114.518 10.028C116.222 10.028 117.674 10.424 118.874 11.216C120.098 11.984 120.71 13.088 120.71 14.528C120.71 15.104 120.554 15.572 120.242 15.932C119.93 16.268 119.522 16.436 119.018 16.436C118.514 16.436 118.094 16.304 117.758 16.04C117.446 15.752 117.29 15.368 117.29 14.888C117.602 14.648 117.818 14.396 117.938 14.132C118.058 13.844 118.118 13.508 118.118 13.124C118.118 12.452 117.818 11.9 117.218 11.468C116.642 11.036 115.742 10.82 114.518 10.82C113.462 10.82 112.55 10.988 111.782 11.324C111.038 11.636 110.474 12.056 110.09 12.584C109.706 13.112 109.514 13.652 109.514 14.204C109.514 14.78 109.718 15.236 110.126 15.572C110.558 15.908 111.338 16.28 112.466 16.688L117.506 18.488C118.682 18.92 119.57 19.52 120.17 20.288C120.77 21.056 121.07 22.052 121.07 23.276C121.07 25.028 120.518 26.48 119.414 27.632C118.31 28.784 116.63 29.36 114.374 29.36Z" fill="white"/>
</svg>
