<svg width="21" height="21" viewBox="0 0 21 21" fill="none" xmlns="http://www.w3.org/2000/svg">
<g clip-path="url(#clip0)">
<path d="M10.2232 16.084C10.3912 15.972 10.61 15.972 10.7779 16.084L15.8474 19.4637L15.0056 13.5707C14.9833 13.4149 15.0357 13.2577 15.147 13.1464L19.4399 8.85355L13.4298 7.99498C13.2571 7.9703 13.1097 7.85735 13.041 7.69696L10.5006 1.7693L7.96013 7.69696C7.89139 7.85735 7.74401 7.9703 7.57127 7.99498L1.56122 8.85355L5.85411 13.1464C5.96539 13.2577 6.01779 13.4149 5.99553 13.5707L5.15368 19.4637L10.2232 16.084ZM4.77791 20.916C4.4183 21.1558 3.94446 20.8571 4.00558 20.4293L4.97023 13.6768L0.147002 8.85355C-0.144342 8.56221 0.021963 8.06329 0.429845 8.00502L7.15167 7.04476L10.041 0.30304C10.2141 -0.101013 10.787 -0.101013 10.9601 0.30304L13.8494 7.04476L20.5713 8.00502C20.9791 8.06329 21.1455 8.56221 20.8541 8.85355L16.0309 13.6768L16.9955 20.4293C17.0567 20.8571 16.5828 21.1558 16.2232 20.916L10.5006 17.1009L4.77791 20.916Z" fill="#CC3829"/>
</g>
<defs>
<clipPath id="clip0">
<rect width="21" height="21" fill="white"/>
</clipPath>
</defs>
</svg>
