<svg width="21" height="21" viewBox="0 0 21 21" fill="none" xmlns="http://www.w3.org/2000/svg">
<g clip-path="url(#clip0)">
<path d="M14.5 5H6.5C5.11929 5 4 6.11929 4 7.5V8.1094L7.49216 8.97971L10.3406 8.02599C10.4435 7.99151 10.5549 7.99149 10.6579 8.02593L13.5093 8.97953L17 8.10104V7.5C17 6.11929 15.8807 5 14.5 5ZM13 4H14.5C16.433 4 18 5.567 18 7.5V12H19.5C20.3284 12 21 12.6716 21 13.5V19.5C21 20.3284 20.3284 21 19.5 21H1.5C0.671573 21 0 20.3284 0 19.5V13.5C0 12.6716 0.671573 12 1.5 12H3V7.5C3 5.567 4.567 4 6.5 4H8V2.5C8 1.11929 9.11929 0 10.5 0C11.8807 0 13 1.11929 13 2.5V4ZM1 15.8055L3.32994 15.0258C3.42018 14.9956 3.51717 14.9918 3.60951 15.0148L7.48065 15.9796L10.3291 15.0259C10.432 14.9914 10.5434 14.9914 10.6464 15.0258L13.4978 15.9794L17.3294 15.0151C17.4216 14.9919 17.5185 14.9955 17.6088 15.0254L20 15.8183V13.5C20 13.2239 19.7761 13 19.5 13H1.5C1.22386 13 1 13.2239 1 13.5V15.8055ZM1 16.86V19.5C1 19.7761 1.22386 20 1.5 20H19.5C19.7761 20 20 19.7761 20 19.5V16.8718L17.4323 16.0204L13.6 16.9849C13.5074 17.0082 13.41 17.0045 13.3194 16.9742L10.4879 16.0273L7.65992 16.9741C7.56965 17.0044 7.47263 17.0082 7.38026 16.9852L3.50908 16.0204L1 16.86ZM17 9.13222L13.6115 9.985C13.5189 10.0083 13.4215 10.0046 13.3309 9.9743L10.4994 9.02737L7.67144 9.97425C7.58117 10.0045 7.48415 10.0083 7.39178 9.98528L4 9.13999V12H17V9.13222ZM12 4V2.5C12 1.67157 11.3284 1 10.5 1C9.67157 1 9 1.67157 9 2.5V4H12Z" fill="#CC3829"/>
</g>
<defs>
<clipPath id="clip0">
<rect width="21" height="21" fill="white"/>
</clipPath>
</defs>
</svg>
