<svg width="22" height="25" viewBox="0 0 22 25" fill="none" xmlns="http://www.w3.org/2000/svg">
<g clip-path="url(#clip0)">
<path d="M11.0047 6.88501C7.88147 6.88501 5.36228 9.38989 5.36228 12.4954C5.36228 15.6008 7.88147 18.1057 11.0047 18.1057C14.1279 18.1057 16.6471 15.6008 16.6471 12.4954C16.6471 9.38989 14.1279 6.88501 11.0047 6.88501ZM11.0047 16.1428C8.98638 16.1428 7.33638 14.5071 7.33638 12.4954C7.33638 10.4836 8.98147 8.8479 11.0047 8.8479C13.0279 8.8479 14.673 10.4836 14.673 12.4954C14.673 14.5071 13.023 16.1428 11.0047 16.1428ZM18.194 6.65552C18.194 7.38306 17.6047 7.96411 16.8779 7.96411C16.1462 7.96411 15.5618 7.37817 15.5618 6.65552C15.5618 5.93286 16.1511 5.34692 16.8779 5.34692C17.6047 5.34692 18.194 5.93286 18.194 6.65552ZM21.931 7.98364C21.8475 6.23071 21.4449 4.67798 20.1533 3.39868C18.8667 2.11938 17.3051 1.71899 15.5422 1.6311C13.7252 1.52856 8.27924 1.52856 6.46228 1.6311C4.70424 1.71411 3.14263 2.1145 1.85112 3.3938C0.559598 4.6731 0.16183 6.22583 0.0734375 7.97876C-0.0296875 9.7854 -0.0296875 15.2004 0.0734375 17.0071C0.15692 18.76 0.559598 20.3127 1.85112 21.592C3.14263 22.8713 4.69933 23.2717 6.46228 23.3596C8.27924 23.4622 13.7252 23.4622 15.5422 23.3596C17.3051 23.2766 18.8667 22.8762 20.1533 21.592C21.44 20.3127 21.8426 18.76 21.931 17.0071C22.0342 15.2004 22.0342 9.79028 21.931 7.98364ZM19.5837 18.9456C19.2007 19.9026 18.4592 20.6399 17.4917 21.0256C16.0431 21.5969 12.6056 21.4651 11.0047 21.4651C9.40379 21.4651 5.96138 21.592 4.51763 21.0256C3.55513 20.6448 2.81362 19.9075 2.42567 18.9456C1.85112 17.5051 1.98371 14.0872 1.98371 12.4954C1.98371 10.9036 1.85603 7.48071 2.42567 6.04517C2.80871 5.08813 3.55022 4.35083 4.51763 3.96509C5.96629 3.3938 9.40379 3.52563 11.0047 3.52563C12.6056 3.52563 16.048 3.39868 17.4917 3.96509C18.4542 4.34595 19.1958 5.08325 19.5837 6.04517C20.1583 7.4856 20.0257 10.9036 20.0257 12.4954C20.0257 14.0872 20.1583 17.51 19.5837 18.9456Z" fill="white"/>
</g>
<defs>
<clipPath id="clip0">
<rect width="22" height="25" fill="white"/>
</clipPath>
</defs>
</svg>
