<svg width="17" height="21" viewBox="0 0 17 21" fill="none" xmlns="http://www.w3.org/2000/svg">
<g clip-path="url(#clip0)">
<path d="M9 19.9731L16 19.9815V16.5213C16 15.1918 13.7539 12.5366 11.9677 11.3229C12.0261 11.4776 12.0066 11.6579 11.9 11.8L9 15.6667V19.9731ZM8 19.9719V15.6667L5.10003 11.8C4.99202 11.656 4.97345 11.4727 5.0348 11.3166C3.17502 12.4662 1 15.0919 1 16.5213V19.9635L8 19.9719ZM8.31464 20.9635H0.5C0.223858 20.9635 0 20.7397 0 20.4635V16.5213C0 14.6209 2.54391 11.5769 4.73359 10.3328C3.73913 9.18029 3.17052 7.50903 3.03292 5.57129C3.02186 5.54876 3.01088 5.52534 3 5.50104C3.0082 5.48273 3.01645 5.46493 3.02475 5.44762C3.00825 5.17818 3 4.90375 3 4.625C3 1.53157 5.12691 0 8.5 0C11.8041 0 13.9125 1.46956 13.9973 4.43716C14.0003 4.46504 14.0009 4.49276 13.9992 4.52007C13.9997 4.55484 14 4.58982 14 4.625C14 6.95948 13.4211 8.99069 12.2714 10.327C14.3576 11.6233 17 14.7099 17 16.5213V20.4635C17 20.7397 16.7761 20.9635 16.5 20.9635H8.68536C8.62804 20.9864 8.56549 20.999 8.5 20.999C8.43451 20.999 8.37196 20.9864 8.31464 20.9635ZM6.05915 11.4122L8.50003 14.6667L10.9409 11.4121C10.245 11.7917 9.43114 12 8.5 12C7.56891 12 6.75504 11.7917 6.05915 11.4122ZM4.07159 5.9529C4.40689 8.94335 5.91531 11 8.5 11C11.3207 11 12.8596 8.55063 12.9908 5.11127C10.003 5.71385 7.84465 5.46194 6.54989 4.29546C5.83534 5.23163 5.00643 5.79235 4.07159 5.9529ZM4.00397 4.94659C4.76297 4.77862 5.44779 4.21932 6.07062 3.23304C6.25642 2.93881 6.67849 2.91964 6.8902 3.19581C7.83322 4.42596 9.84371 4.75549 12.9728 4.09396C12.7497 1.99927 11.1624 1 8.5 1C5.6218 1 4 2.16784 4 4.625C4 4.73307 4.00133 4.84028 4.00397 4.94659ZM11.5003 17.001C11.2241 17.0011 11.0001 16.7774 11 16.5013C10.9999 16.2251 11.2236 16.0011 11.4997 16.001L13.4997 16C13.7759 15.9999 13.9999 16.2236 14 16.4997C14.0001 16.7759 13.7764 16.9999 13.5003 17L11.5003 17.001Z" fill="#CC3829"/>
</g>
<defs>
<clipPath id="clip0">
<rect width="17" height="21" fill="white"/>
</clipPath>
</defs>
</svg>
