<svg width="94" height="24" viewBox="0 0 94 24" fill="none" xmlns="http://www.w3.org/2000/svg">
<path d="M0.12 22.412L2.696 21.992V1.608L0.12 1.216V0.6H8.912C11.6747 0.6 13.728 1.188 15.072 2.364C16.416 3.54 17.088 5.23867 17.088 7.46C17.088 9.68133 16.416 11.38 15.072 12.556C13.728 13.732 11.6747 14.32 8.912 14.32H5.776V21.992L8.352 22.412V23H0.12V22.412ZM8.52 13.648C11.9733 13.648 13.7 11.772 13.7 8.02V6.9C13.7 3.16667 11.9733 1.3 8.52 1.3H5.776V13.648H8.52ZM18.8966 22.44L20.8566 22.16V9.336L18.8966 9.056V8.496H23.6566V10.652C24.8326 9.04667 26.158 8.244 27.6326 8.244C28.342 8.244 28.9673 8.43067 29.5086 8.804C30.05 9.15867 30.3206 9.672 30.3206 10.344C30.3206 10.8293 30.162 11.24 29.8446 11.576C29.5273 11.8933 29.1073 12.052 28.5846 12.052C27.9873 12.052 27.502 11.8187 27.1286 11.352C27.334 11.0907 27.4366 10.8107 27.4366 10.512C27.4366 10.1947 27.3246 9.94267 27.1006 9.756C26.8953 9.55067 26.6153 9.448 26.2606 9.448C25.8686 9.448 25.4673 9.63467 25.0566 10.008C24.646 10.3627 24.1793 10.9227 23.6566 11.688V22.16L25.8966 22.44V23H18.8966V22.44ZM34.2793 5.248C33.7567 5.248 33.3087 5.07067 32.9353 4.716C32.562 4.34267 32.3753 3.89467 32.3753 3.372C32.3753 2.84933 32.5527 2.41067 32.9073 2.056C33.2807 1.70133 33.738 1.524 34.2793 1.524C34.7833 1.524 35.2127 1.70133 35.5673 2.056C35.922 2.41067 36.0993 2.84933 36.0993 3.372C36.0993 3.89467 35.922 4.34267 35.5673 4.716C35.2127 5.07067 34.7833 5.248 34.2793 5.248ZM31.3113 23V22.44L33.2713 22.16V9.364L31.3113 9.084V8.524H36.0713V22.16L38.0313 22.44V23H31.3113ZM39.3771 22.44L41.3371 22.16V9.336L39.3771 9.056V8.496H44.1371V11.072C44.8091 10.1947 45.5651 9.504 46.4051 9C47.2638 8.496 48.1878 8.244 49.1771 8.244C50.3158 8.244 51.2398 8.496 51.9491 9C52.6771 9.48533 53.1344 10.2227 53.3211 11.212C53.9931 10.2973 54.7584 9.57867 55.6171 9.056C56.4758 8.51467 57.4184 8.244 58.4451 8.244C59.7704 8.244 60.7971 8.58 61.5251 9.252C62.2718 9.90533 62.6451 10.904 62.6451 12.248V22.16L64.6051 22.44V23H58.1651V22.44L59.8451 22.16V12.304C59.8451 11.3147 59.6678 10.5587 59.3131 10.036C58.9584 9.51333 58.3798 9.252 57.5771 9.252C56.8118 9.252 56.0651 9.51333 55.3371 10.036C54.6278 10.5587 53.9838 11.2307 53.4051 12.052V22.16L55.0851 22.44V23H48.8971V22.44L50.5771 22.16V12.304C50.5771 11.3147 50.3998 10.5587 50.0451 10.036C49.6904 9.51333 49.1118 9.252 48.3091 9.252C47.5438 9.252 46.7971 9.51333 46.0691 10.036C45.3598 10.5587 44.7158 11.2307 44.1371 12.052V22.16L45.8171 22.44V23H39.3771V22.44ZM73.5732 23.28C72.2292 23.28 71.0065 22.972 69.9052 22.356C68.8039 21.7213 67.9265 20.8347 67.2732 19.696C66.6385 18.5387 66.3212 17.2227 66.3212 15.748C66.3212 14.2733 66.6385 12.9667 67.2732 11.828C67.9265 10.6893 68.8039 9.812 69.9052 9.196C71.0065 8.56133 72.2292 8.244 73.5732 8.244C74.9172 8.244 76.1399 8.56133 77.2412 9.196C78.3425 9.812 79.2105 10.6893 79.8452 11.828C80.4985 12.9667 80.8252 14.2733 80.8252 15.748C80.8252 17.2227 80.4985 18.5387 79.8452 19.696C79.2105 20.8347 78.3425 21.7213 77.2412 22.356C76.1399 22.972 74.9172 23.28 73.5732 23.28ZM73.5732 22.664C74.9545 22.664 75.9905 22.16 76.6812 21.152C77.3905 20.144 77.7452 18.8093 77.7452 17.148V14.348C77.7452 12.6867 77.3905 11.3613 76.6812 10.372C75.9905 9.364 74.9545 8.86 73.5732 8.86C72.1919 8.86 71.1465 9.364 70.4372 10.372C69.7465 11.3613 69.4012 12.6867 69.4012 14.348V17.148C69.4012 18.8093 69.7465 20.144 70.4372 21.152C71.1465 22.16 72.1919 22.664 73.5732 22.664ZM88.7356 23.28C87.205 23.28 85.9263 22.9533 84.8996 22.3C83.873 21.6467 83.3596 20.7973 83.3596 19.752C83.3596 19.2107 83.4996 18.7907 83.7796 18.492C84.0783 18.1747 84.4703 18.016 84.9556 18.016C85.329 18.016 85.6463 18.1093 85.9076 18.296C86.169 18.4827 86.3556 18.744 86.4676 19.08C86.057 19.528 85.8516 20.004 85.8516 20.508C85.8516 21.0867 86.113 21.5907 86.6356 22.02C87.1583 22.4493 87.8583 22.664 88.7356 22.664C89.9116 22.664 90.873 22.4027 91.6196 21.88C92.3663 21.3387 92.7396 20.62 92.7396 19.724C92.7396 19.2013 92.581 18.8093 92.2636 18.548C91.9463 18.2867 91.3303 17.988 90.4156 17.652L86.1876 16.112C84.5263 15.5147 83.6956 14.404 83.6956 12.78C83.6956 11.4547 84.153 10.372 85.0676 9.532C85.9823 8.67333 87.2423 8.244 88.8476 8.244C90.173 8.244 91.3023 8.552 92.2356 9.168C93.1876 9.76533 93.6636 10.624 93.6636 11.744C93.6636 12.192 93.5423 12.556 93.2996 12.836C93.057 13.0973 92.7396 13.228 92.3476 13.228C91.9556 13.228 91.629 13.1253 91.3676 12.92C91.125 12.696 91.0036 12.3973 91.0036 12.024C91.2463 11.8373 91.4143 11.6413 91.5076 11.436C91.601 11.212 91.6476 10.9507 91.6476 10.652C91.6476 10.1293 91.4143 9.7 90.9476 9.364C90.4996 9.028 89.7996 8.86 88.8476 8.86C88.0263 8.86 87.317 8.99067 86.7196 9.252C86.141 9.49467 85.7023 9.82133 85.4036 10.232C85.105 10.6427 84.9556 11.0627 84.9556 11.492C84.9556 11.94 85.1143 12.2947 85.4316 12.556C85.7676 12.8173 86.3743 13.1067 87.2516 13.424L91.1716 14.824C92.0863 15.16 92.777 15.6267 93.2436 16.224C93.7103 16.8213 93.9436 17.596 93.9436 18.548C93.9436 19.9107 93.5143 21.04 92.6556 21.936C91.797 22.832 90.4903 23.28 88.7356 23.28Z" fill="white"/>
</svg>
